<svg width="12" height="12" viewBox="0 0 12 12" fill="none" xmlns="http://www.w3.org/2000/svg">
<path d="M10.5 2.25H9.58725L8.57137 0.556875C8.53805 0.501408 8.49094 0.455508 8.43463 0.423638C8.37831 0.391768 8.31471 0.375012 8.25 0.375H5.25C5.18529 0.375012 5.12169 0.391768 5.06537 0.423638C5.00906 0.455508 4.96195 0.501408 4.92863 0.556875L3.91275 2.25H1.5C1.10218 2.25 0.720644 2.40804 0.43934 2.68934C0.158035 2.97064 0 3.35218 0 3.75L0 9.75C0 10.1478 0.158035 10.5294 0.43934 10.8107C0.720644 11.092 1.10218 11.25 1.5 11.25H10.5C10.8978 11.25 11.2794 11.092 11.5607 10.8107C11.842 10.5294 12 10.1478 12 9.75V3.75C12 3.35218 11.842 2.97064 11.5607 2.68934C11.2794 2.40804 10.8978 2.25 10.5 2.25ZM2.625 10.5H1.875V3H2.625V10.5ZM6.75 9.375C6.23082 9.375 5.72331 9.22105 5.29163 8.93261C4.85995 8.64417 4.5235 8.2342 4.32482 7.75454C4.12614 7.27489 4.07415 6.74709 4.17544 6.23789C4.27672 5.72869 4.52673 5.26096 4.89384 4.89384C5.26096 4.52673 5.72869 4.27673 6.23789 4.17544C6.74709 4.07415 7.27489 4.12614 7.75454 4.32482C8.2342 4.5235 8.64417 4.85995 8.93261 5.29163C9.22105 5.72331 9.375 6.23082 9.375 6.75C9.375 7.44619 9.09844 8.11387 8.60616 8.60616C8.11387 9.09844 7.44619 9.375 6.75 9.375Z" fill="#31A9C9"/>
</svg>
