<svg width="14" height="14" viewBox="0 0 14 14" fill="none" xmlns="http://www.w3.org/2000/svg">
<g clip-path="url(#clip0_2226_15556)">
<path d="M9.91602 7.81683V9.56683C9.91602 11.9002 8.98268 12.8335 6.64935 12.8335H4.43268C2.09935 12.8335 1.16602 11.9002 1.16602 9.56683V7.35016C1.16602 5.01683 2.09935 4.0835 4.43268 4.0835H6.18268" stroke="#646464" stroke-linecap="round" stroke-linejoin="round"/>
<path d="M9.91693 7.81683H8.05026C6.65026 7.81683 6.18359 7.35016 6.18359 5.95016V4.0835L9.91693 7.81683Z" stroke="#646464" stroke-linecap="round" stroke-linejoin="round"/>
<path d="M6.76758 1.1665H9.10091" stroke="#646464" stroke-linecap="round" stroke-linejoin="round"/>
<path d="M4.08398 2.9165C4.08398 1.94817 4.86565 1.1665 5.83398 1.1665H7.36232" stroke="#646464" stroke-linecap="round" stroke-linejoin="round"/>
<path d="M12.8325 4.6665V8.27734C12.8325 9.1815 12.0975 9.9165 11.1934 9.9165" stroke="#646464" stroke-linecap="round" stroke-linejoin="round"/>
<path d="M12.834 4.6665H11.084C9.77148 4.6665 9.33398 4.229 9.33398 2.9165V1.1665L12.834 4.6665Z" stroke="#646464" stroke-linecap="round" stroke-linejoin="round"/>
</g>
<defs>
<clipPath id="clip0_2226_15556">
<rect width="14" height="14" fill="white"/>
</clipPath>
</defs>
</svg>
